HIERARCHY
ROOT Hips
{
	OFFSET -0.179506 -22.333345 2.821913
	CHANNELS 6 Xposition Yposition Zposition Zrotation Yrotation Xrotation 
	JOINT LeftUpLeg
	{
		OFFSET 6.951974 -9.140623 -0.681533
		CHANNELS 3 Zrotation Yrotation Xrotation
		JOINT LeftLeg
		{
			OFFSET 3.427654 -37.519855 -0.449580
			CHANNELS 3 Zrotation Yrotation Xrotation
			JOINT LeftFoot
			{
				OFFSET -1.359570 -39.796059 -4.369333
				CHANNELS 3 Zrotation Yrotation Xrotation
				JOINT LeftToe
				{
					OFFSET 2.635814 -5.579078 11.928840
					CHANNELS 3 Zrotation Yrotation Xrotation
					End Site
					{
						OFFSET 0.000000 0.000000 0.000000
					}
				}
			}
		}
	}
	JOINT RightUpLeg
	{
		OFFSET -6.767048 -9.052170 -0.431982
		CHANNELS 3 Zrotation Yrotation Xrotation
		JOINT RightLeg
		{
			OFFSET -3.829005 -38.256897 -0.885003
			CHANNELS 3 Zrotation Yrotation Xrotation
			JOINT RightFoot
			{
				OFFSET 1.577377 -39.841461 -4.231180
				CHANNELS 3 Zrotation Yrotation Xrotation
				JOINT RightToe
				{
					OFFSET -2.537174 -4.814398 12.334795
					CHANNELS 3 Zrotation Yrotation Xrotation
					End Site
					{
						OFFSET 0.000000 0.000000 0.000000
					}
				}
			}
		}
	}
	JOINT Spine
	{
		OFFSET -0.253288 10.896323 -2.669631
		CHANNELS 3 Zrotation Yrotation Xrotation
		JOINT Spine1
		{
			OFFSET 0.548704 13.518043 0.109247
			CHANNELS 3 Zrotation Yrotation Xrotation
			JOINT Spine2
			{
				OFFSET 0.145701 5.292222 2.542457
				CHANNELS 3 Zrotation Yrotation Xrotation
				JOINT Neck
				{
					OFFSET -0.277840 21.387037 -4.285703
					CHANNELS 3 Zrotation Yrotation Xrotation
					JOINT Head
					{
						OFFSET 0.515184 6.496960 5.134897
						CHANNELS 3 Zrotation Yrotation Xrotation
						End Site
						{
							OFFSET 0.000000 0.000000 0.000000
						}
					}
				}
				JOINT LeftShoulder
				{
					OFFSET 7.884473 12.174932 -3.408961
					CHANNELS 3 Zrotation Yrotation Xrotation
					JOINT LeftArm
					{
						OFFSET 9.097692 3.046888 -0.886815
						CHANNELS 3 Zrotation Yrotation Xrotation
						JOINT LeftForeArm
						{
							OFFSET 25.961220 -1.277207 -2.745643
							CHANNELS 3 Zrotation Yrotation Xrotation
							JOINT LeftHand
							{
								OFFSET 24.923361 0.898606 -0.117091
								CHANNELS 3 Zrotation Yrotation Xrotation
								End Site
								{
									OFFSET 0.000000 0.000000 0.000000
								}
							}
						}
					}
				}
				JOINT RightShoulder
				{
					OFFSET -8.175920 11.883285 -3.861528
					CHANNELS 3 Zrotation Yrotation Xrotation
					JOINT RightArm
					{
						OFFSET -9.601238 3.255117 -0.914307
						CHANNELS 3 Zrotation Yrotation Xrotation
						JOINT RightForeArm
						{
							OFFSET -25.374195 -1.332924 -2.140099
							CHANNELS 3 Zrotation Yrotation Xrotation
							JOINT RightHand
							{
								OFFSET -25.529810 0.777228 -0.555919
								CHANNELS 3 Zrotation Yrotation Xrotation
								End Site
								{
									OFFSET 0.000000 0.000000 0.000000
								}
							}
						}
					}
				}
			}
		}
	}
}
MOTION
Frames: 15
Frame Time: 0.033333
3.074408 -311.988739 91.438675 176.796823 1.314018 89.803991 2.636106 4.142199 4.396981 -3.117627 -2.021653 -4.040945 1.229737 11.030727 -5.587709 nan nan nan -1.307543 -2.821691 0.690556 3.610569 0.815471 2.753215 2.800592 -4.936613 -10.390137 nan nan nan 1.515474 0.728688 8.209664 1.084219 -1.716459 -0.156745 1.074832 -0.754104 -3.201377 0.383914 4.313559 -2.386473 0.133606 6.800408 13.028210 -29.640888 1.364590 2.395632 -53.805204 -4.153355 15.283155 2.793280 -27.785241 9.383512 1.831743 -9.717895 -3.736856 29.621414 3.749814 2.683951 54.032754 7.063561 17.140312 -4.010446 18.599303 0.463249 3.806441 4.790198 -3.906301 
3.087966 -311.859406 91.407799 177.244669 1.190319 89.703689 2.639788 4.168186 4.290695 -3.363469 -1.538754 -3.720085 1.228929 11.127996 -5.596893 nan nan nan -1.533114 -2.920653 1.063324 3.601137 0.617431 2.775368 3.078012 -5.076318 -9.932086 nan nan nan 1.468332 0.600212 8.168009 0.942408 -1.862147 -0.324234 1.072359 -0.928490 -2.824216 0.530859 4.240650 -2.361738 0.101764 6.724275 12.944548 -29.237294 1.304131 2.824136 -54.159250 -4.212789 15.133017 2.919089 -28.142287 9.756639 1.755107 -9.599477 -4.246965 29.071696 3.682350 2.810643 54.724938 7.080498 17.181162 -4.153814 19.203105 0.466903 3.888139 4.576967 -5.147683 
3.085052 -311.764679 91.380806 177.436863 1.129467 89.659950 2.621333 4.128529 4.105741 -3.501640 -1.322176 -3.382083 1.247051 11.171624 -5.631690 nan nan nan -1.671608 -2.958462 1.193870 3.586507 0.584505 2.897477 3.217966 -5.155228 -9.754654 nan nan nan 1.464745 0.549156 8.114465 0.873984 -1.937969 -0.366742 1.040721 -0.989140 -2.666866 0.621246 4.234934 -2.382809 0.081126 6.758674 13.053536 -29.070421 1.306101 2.974177 -54.331875 -4.213521 15.166216 2.890745 -28.216414 10.120464 1.719636 -9.463339 -4.296913 28.868358 3.621369 2.854313 54.988647 7.122631 17.263029 -4.105578 19.400863 0.582295 3.978382 4.428510 -5.569862 
3.088040 -311.634583 91.353127 177.377754 1.101453 89.527571 2.596819 3.832431 3.903761 -3.640647 -1.183109 -2.291983 1.231876 11.113193 -5.666913 nan nan nan -1.751023 -2.916529 1.373094 3.563655 0.670140 3.054575 3.240190 -5.149907 -9.646121 nan nan nan 1.468211 0.623032 8.007345 0.866342 -1.961359 -0.154041 0.997651 -0.995160 -2.616584 0.649591 4.344816 -2.397929 0.039408 6.713875 13.108536 -29.051731 1.331662 3.003143 -54.389576 -4.198447 15.134038 2.809000 -28.169227 10.390324 1.611712 -9.527141 -4.031125 28.945166 3.575254 2.926412 54.996521 7.050865 17.281476 -4.061955 19.547602 0.865709 3.836638 4.519877 -5.074612 
3.239194 -310.669769 91.178421 179.962154 1.451591 88.257132 3.674035 4.385050 5.011602 -4.208169 1.013497 -1.562365 0.516002 11.172705 -4.929673 nan nan nan -1.465240 -3.562770 5.130756 3.847360 -0.176698 0.652209 3.016293 -5.540094 -10.160672 nan nan nan 1.410106 -0.135866 6.661001 0.992619 -3.085032 1.088619 1.288713 -1.623644 -1.192130 0.921841 4.788609 -1.666268 -0.255788 6.177713 12.287135 -29.831462 1.059834 4.001511 -55.432240 -5.147975 12.732261 5.721684 -27.249005 8.878014 -0.299433 -9.921729 -3.479025 28.806595 3.911354 3.331875 55.676226 6.978292 16.383996 -4.938578 19.717926 1.392339 3.804959 4.245985 -3.815284 
3.111621 -310.598999 91.181625 179.985815 0.744177 88.764034 2.922205 3.766146 4.277086 -5.225770 0.352303 0.283548 2.258644 13.322134 -14.873634 nan nan nan -2.166215 -3.833359 5.830926 3.245417 1.486130 -1.980871 3.449289 -6.020613 -10.122264 nan nan nan 0.489511 0.361205 6.070603 1.380603 -3.673168 1.923224 1.255173 -1.560150 -2.212796 0.657713 4.426931 -1.553916 -0.141719 6.560132 12.188144 -29.607705 1.526863 3.500851 -56.092617 -4.667121 13.034892 6.152864 -26.760446 8.356108 -2.267668 -9.896322 -1.955581 28.440670 3.783477 2.626971 55.783870 6.378316 16.190730 -5.039340 19.377536 1.764835 5.795523 4.585217 -1.866284 
3.105254 -310.464600 91.134178 -179.922795 0.839144 88.772781 2.901870 3.652949 4.062663 -5.048613 0.497556 0.831502 2.115734 13.471895 -14.884819 nan nan nan -1.943414 -3.873024 5.717198 3.064672 1.572515 -1.842041 3.372149 -6.263207 -10.450643 nan nan nan 0.562105 0.310205 5.911336 1.309814 -3.633746 1.844877 1.226160 -1.602720 -2.064591 0.943307 4.403362 -1.620908 -0.141404 6.518359 12.415524 -29.288152 1.721756 3.409337 -56.425789 -4.549943 13.058352 6.070159 -26.684185 8.875174 -2.383363 -9.929384 -1.818947 28.097999 3.684759 2.573228 56.034282 6.249641 16.771623 -4.648386 19.589195 3.398344 5.640465 4.623886 -1.078742 
3.073216 -310.394867 91.127373 -179.992279 0.926384 88.644372 2.947988 3.685479 4.064457 -5.032341 0.439700 1.221851 2.032053 13.490887 -14.907611 nan nan nan -1.824688 -3.936436 5.659227 3.026128 1.530879 -1.645127 3.288056 -6.512864 -10.703791 nan nan nan 0.645993 0.286252 6.069294 1.226603 -3.483982 1.516180 1.241670 -1.574539 -1.798873 1.197742 4.304329 -1.755227 -0.168242 6.590709 12.688202 -29.178093 1.798207 3.436272 -56.584952 -4.610364 13.108570 5.996576 -26.450530 9.200201 -2.309590 -9.675192 -2.311986 27.763381 3.671921 2.491053 56.324548 6.610944 17.008404 -4.487741 19.264116 3.601445 5.966148 4.103345 -2.153951 
3.037815 -310.357941 91.131439 -179.995975 0.949464 88.588333 2.907301 3.706997 3.921152 -5.027616 0.422854 1.660349 1.976790 13.516227 -15.058369 nan nan nan -1.797961 -3.953790 5.593845 2.989945 1.309821 -1.568588 3.187544 -6.739842 -10.894176 nan nan nan 0.619284 0.278917 6.116281 1.227976 -3.455642 1.501178 1.261761 -1.531229 -1.739912 1.336530 4.342068 -1.866536 -0.125717 6.535409 12.655244 -29.142668 1.844732 3.359689 -56.691325 -4.616919 13.039649 5.961100 -26.199643 9.286146 -2.486421 -9.830254 -2.139959 27.667950 3.679170 2.546943 56.507440 6.367087 17.128220 -4.704761 19.519975 4.025998 5.762525 4.434315 -1.754161 
3.023738 -310.320221 91.139282 -179.783956 1.074206 88.523648 3.014091 3.726382 3.619552 -5.027398 0.270741 2.499977 2.150227 13.469884 -15.854350 nan nan nan -1.673846 -4.273302 5.607560 3.436397 1.023707 -1.312678 2.775591 -7.454846 -11.479285 nan nan nan 0.486742 0.253134 5.938344 1.513147 -3.680277 2.136211 1.348541 -1.459411 -1.941758 1.425440 4.603117 -2.156816 -0.406718 6.300177 12.452123 -29.096971 1.928382 3.106804 -57.205437 -4.559391 13.041767 6.588507 -26.185760 8.639084 -3.887180 -9.582460 -1.102869 27.771452 3.226044 1.858538 57.423353 5.644565 16.083695 -7.103929 20.631201 2.075734 7.141177 3.719180 -1.056598 
2.781594 -310.355072 91.151779 179.542785 0.977251 88.938481 2.440011 3.531988 3.095647 -4.623299 0.220908 2.818341 2.580021 13.856160 -16.061319 nan nan nan -2.078887 -3.816955 4.659977 3.697175 1.148295 -0.672527 2.741131 -7.362223 -11.687678 nan nan nan 0.878736 0.324283 5.313822 1.371098 -3.371521 2.705445 1.003001 -1.239464 -2.400318 1.409105 4.778922 -1.866046 -0.435752 6.172999 12.048260 -29.067486 1.981884 2.822091 -57.532730 -4.262914 13.287225 6.927892 -25.874488 8.092604 -4.632701 -9.998198 0.056143 27.450297 3.354873 1.787277 57.734425 5.015421 16.334497 -7.416140 20.878484 2.937260 7.140249 4.027696 1.030154 
2.489435 -310.393768 91.147049 -179.907784 0.947597 89.132275 1.921257 2.978165 2.404467 -4.200315 -0.110623 3.634209 2.999244 13.925944 -16.515512 nan nan nan -2.451709 -4.030829 4.471377 4.006782 1.017572 -0.641828 2.747217 -7.672794 -11.846321 nan nan nan 1.474067 0.361060 5.130841 1.189373 -3.761594 2.710942 0.696601 -1.438794 -2.378136 1.364955 4.746873 -2.125089 -0.510713 6.248096 12.124052 -29.057419 1.989943 2.750284 -57.820519 -4.232961 13.388151 7.189319 -25.657402 8.067544 -4.930156 -10.157692 0.160334 26.996419 3.421513 1.521161 58.122270 4.794107 16.502910 -7.651583 21.011852 3.294051 7.267182 3.699015 1.338979 
2.447530 -310.304077 91.148277 -179.714075 0.981757 89.098991 1.854101 2.834554 2.274552 -4.201648 -0.161774 4.072672 3.081035 13.925935 -16.760321 nan nan nan -2.438149 -4.187324 4.580212 3.965758 1.057622 -0.645104 2.758231 -7.853750 -12.046488 nan nan nan 1.510436 0.399912 5.099733 1.132712 -3.830812 2.634344 0.729723 -1.504196 -2.285583 1.409941 4.603518 -2.221556 -0.424458 6.303574 12.188137 -28.970044 2.073764 2.839886 -57.872892 -4.213988 13.455831 7.065896 -25.657220 8.447792 -4.893038 -10.145407 -0.289638 26.758614 3.368692 1.422327 58.330175 4.911120 16.494428 -7.505827 20.938105 3.028390 7.300810 3.394712 -0.173025 
2.389902 -310.252869 91.153633 -179.606436 1.023878 88.983824 1.787909 2.736355 2.200917 -4.187439 -0.081800 4.516657 3.046847 14.048384 -17.057457 nan nan nan -2.411201 -4.197727 4.780550 3.890378 1.121466 -0.711093 2.808185 -8.029202 -12.253608 nan nan nan 1.580609 0.370160 5.297611 1.041084 -3.830239 2.417231 0.767384 -1.475196 -2.115448 1.443288 4.357089 -2.388767 -0.368968 6.323941 12.244976 -28.933855 2.091082 2.936514 -57.882128 -4.290269 13.439291 6.897208 -25.635139 8.805847 -4.855350 -10.251113 -0.884004 26.490279 3.485489 1.458243 58.456526 5.122461 16.551411 -7.153601 20.677826 2.973416 7.154273 3.386252 -1.698302 
2.315369 -310.241760 91.165283 -179.701250 1.083046 88.911698 1.741827 2.779833 2.132405 -4.148806 0.005334 4.835140 3.013819 14.261700 -17.522310 nan nan nan -2.379344 -4.106662 4.885737 3.838663 1.229082 -0.796740 2.874415 -8.146195 -12.358155 nan nan nan 1.663440 0.425552 5.493519 1.006528 -3.729724 2.253178 0.780368 -1.454814 -2.001454 1.552799 4.222275 -2.564609 -0.415029 6.356101 12.293399 -28.988879 2.088065 2.956582 -57.892184 -4.323115 13.368532 6.791168 -25.615243 9.097550 -4.780443 -10.224266 -1.063466 26.394599 3.588046 1.537789 58.334382 5.394343 16.595307 -6.906686 20.544982 3.522035 7.201887 3.178749 -1.817448 
